<!-- favicon.svg -->
<svg viewBox="0 0 100 100" xmlns="http://www.w3.org/2000/svg" fill="none">
  <defs>
    <linearGradient id="icon-gradient" x1="0%" y1="0%" x2="100%" y2="100%">
      <stop offset="0%" stop-color="#3B82F6" />
      <stop offset="100%" stop-color="#A855F7" />
    </linearGradient>
  </defs>

  <rect x="0" y="0" width="100" height="100" rx="20" fill="url(#icon-gradient)" />
  <path
    d="M32 32C32 28 36 25 40 25C44 25 48 28 48 32V68C48 72 44 75 40 75C36 75 32 72 32 68V32Z 
       M68 32C68 28 64 25 60 25C56 25 52 28 52 32V68C52 72 56 75 60 75C64 75 68 72 68 68V32Z"
    fill="#ffffff"
  />
</svg>
